<?xml version="1.0" encoding="UTF-8"?>
<svg version="1.1" xmlns="http://www.w3.org/2000/svg" width="512" height="512">
<path d="M0 0 C1.02818848 0.32943604 1.02818848 0.32943604 2.07714844 0.66552734 C27.7482575 9.08941891 48.77513715 25.46266353 66 46 C66.33 46.66 66.66 47.32 67 48 C67.66 48 68.32 48 69 48 C70.36933879 46.44406999 71.66944657 44.82702659 72.9375 43.1875 C93.25103429 17.91707457 121.7099025 0.70058158 154 -4 C191.13967341 -6.03816995 221.70873209 1.91375344 250.125 27.25 C272.5272483 47.92370212 285.64426871 79.34202668 287.12548828 109.56005859 C288.63770301 153.06472844 270.40694874 189.41869028 244 223 C243.21882813 223.99515625 242.43765625 224.9903125 241.6328125 226.015625 C236.49713693 232.41237393 231.00941257 238.45990988 225.42480469 244.46191406 C223.97512681 246.02685077 222.53675341 247.60146073 221.1015625 249.1796875 C214.48067158 256.45962575 207.81991896 263.50086762 200.35546875 269.92578125 C197.98395617 272.01412815 195.67154703 274.15474782 193.36254883 276.31152344 C187.10943448 282.14812805 180.67644499 287.64838482 174 293 C172.77224903 294.00636432 171.54576634 295.01427721 170.3203125 296.0234375 C161.07479803 303.62306981 151.64301585 310.91290917 142 318 C141.31776367 318.50466797 140.63552734 319.00933594 139.93261719 319.52929688 C87.29499261 358.41298229 87.29499261 358.41298229 57 356 C52.67163011 355.18437569 48.96444886 353.89888767 45 352 C44.14148438 351.59910156 43.28296875 351.19820313 42.3984375 350.78515625 C34.51268486 346.77249451 27.33232674 341.57520045 20.11474609 336.48974609 C18.03516054 335.02476906 15.94984316 333.56829924 13.86328125 332.11328125 C-1.92459525 321.0734432 -17.41853449 309.72794781 -32.25878906 297.43701172 C-34.7815772 295.35496868 -37.3309177 293.30593205 -39.875 291.25 C-44.2640461 287.65716766 -48.49480786 283.91693674 -52.6875 280.09765625 C-54.66384372 278.30492554 -56.6645673 276.55204773 -58.6875 274.8125 C-70.06401056 264.89570464 -81.34489499 254.56334158 -91.17578125 243.09765625 C-92.4196954 241.66728816 -93.68934069 240.25899275 -94.98046875 238.87109375 C-126.94389222 204.46238105 -152.41512309 160.73523325 -151.28515625 112.68359375 C-149.93432452 79.21800939 -136.35119814 48.07951605 -112 25 C-82.56136233 -1.29851632 -37.94548635 -12.4570418 0 0 Z M-92 43 C-93.485 44.17755859 -93.485 44.17755859 -95 45.37890625 C-112.87676199 60.99779596 -123.12256411 85.66242888 -125 109 C-126.95250107 143.63327495 -112.80138736 173.85899458 -92 201 C-91.30390625 201.91523438 -90.6078125 202.83046875 -89.890625 203.7734375 C-87.97177055 206.22354504 -86.00139255 208.61686036 -84 211 C-83.56751953 211.52126465 -83.13503906 212.0425293 -82.68945312 212.57958984 C-75.54257968 221.17985696 -68.00814949 229.20106196 -60 237 C-57.23080287 239.75579779 -54.47787361 242.52720878 -51.73046875 245.3046875 C-45.6641268 251.42719141 -39.61676613 257.46754564 -33 263 C-31.57494141 264.22396484 -31.57494141 264.22396484 -30.12109375 265.47265625 C-22.25818341 272.21608911 -14.20004324 278.67266416 -6 285 C-5.2049707 285.61568848 -4.40994141 286.23137695 -3.59082031 286.86572266 C7.00870364 295.06282142 17.66875132 303.08959644 28.81298828 310.53271484 C31.33169755 312.22253877 33.8353859 313.93366156 36.33984375 315.64453125 C38.20531705 316.90946215 40.07119902 318.17379059 41.9375 319.4375 C42.80181641 320.02934082 43.66613281 320.62118164 44.55664062 321.23095703 C54.50081885 327.91471753 62.74298503 331.87967003 75 330 C85.27136744 326.46376478 94.16084973 319.74423434 102.92480469 313.47802734 C105.00436451 311.99689144 107.09735791 310.53697006 109.1953125 309.08203125 C119.35982194 302.01259735 129.22620473 294.59812984 139 287 C139.62535645 286.51644043 140.25071289 286.03288086 140.89501953 285.53466797 C148.2591022 279.83896417 155.48768417 274.01188114 162.55102539 267.9465332 C164.73510651 266.07490408 166.93073569 264.21908721 169.14135742 262.37890625 C177.78334783 255.14340145 185.86388529 247.44737807 193.80639648 239.4543457 C195.82117835 237.42877518 197.84653275 235.41421616 199.87304688 233.40039062 C207.04049332 226.24066259 213.77455935 219.004618 220 211 C220.97574484 209.79515523 221.95333581 208.59180079 222.93359375 207.390625 C246.57041511 177.92247155 263.6419557 144.94079433 260.72265625 106.33203125 C258.29998637 86.28155384 250.79324219 66.97623924 237 52 C236.19046875 51.09894531 235.3809375 50.19789063 234.546875 49.26953125 C219.39247272 33.20675105 198.31722589 22.67616525 176.1640625 21.6875 C158.12152439 21.19248501 143.09636812 23.44557586 127 32 C126.00613281 32.51304688 125.01226562 33.02609375 123.98828125 33.5546875 C115.75783787 38.0518448 108.92453788 43.74738493 102 50 C101.33226562 50.59554687 100.66453125 51.19109375 99.9765625 51.8046875 C91.85807776 59.46579282 85.27823243 69.06934559 79.66796875 78.66015625 C77.20099862 82.12084737 74.75441933 84.596845 70.53515625 85.56640625 C65.69569139 85.55876097 62.05777409 85.41390624 58.41796875 81.8046875 C55.95767865 78.67340919 53.91858142 75.2927889 51.84375 71.8984375 C48.91741284 67.29813628 45.51788716 63.15690411 42 59 C40.96746094 57.76443359 40.96746094 57.76443359 39.9140625 56.50390625 C30.42161747 45.52077039 19.76442914 37.63453468 7 31 C6.09765625 30.51660156 5.1953125 30.03320312 4.265625 29.53515625 C-27.36443634 13.76804992 -65.54472194 20.97370721 -92 43 Z " fill="#F7F3FB" transform="translate(188,80)"/>
</svg>
